<?xml version="1.0" encoding="UTF-8"?><svg id="Capa_2" xmlns="http://www.w3.org/2000/svg" viewBox="0 0 157.92 269.58"><defs><style>.cls-1{fill:#320064;}</style></defs><g id="Capa_1-2"><path class="cls-1" d="m71.24,166.34h-1.76c-20.05,0-40.1,0-60.15.01-2.04,0-3.96-.26-5.66-1.45-3.89-2.72-4.67-7.03-2.44-10.67,2.13-3.48,4.29-6.94,6.48-10.38,2.37-3.74,4.81-7.43,7.17-11.18,3.62-5.76,7.17-11.56,10.78-17.32,3.99-6.38,8.02-12.74,12.04-19.1,3.23-5.1,6.47-10.2,9.7-15.3,4.98-7.87,9.95-15.74,14.92-23.61,4.84-7.66,9.71-15.31,14.54-22.98,4.48-7.11,8.93-14.23,13.4-21.35,1.87-2.98,3.73-5.96,5.64-8.91,1.61-2.49,3.81-4.29,6.89-4.1,5.09.32,8.59,4.21,7.32,9.55-1.13,4.75-2.26,9.51-3.45,14.25-1.5,5.99-3.04,11.97-4.58,17.95-1.89,7.37-3.81,14.72-5.67,22.1-1.62,6.44-3.17,12.89-4.77,19.33-1.48,5.96-2.99,11.92-4.47,17.89-.15.62-.22,1.26-.33,1.89.68.07,1.35.19,2.03.19,19.96.01,39.92-.02,59.89.03,3.04,0,5.87.71,7.73,3.57,1.75,2.68,1.97,5.4.34,8.11-3.01,4.99-6.13,9.91-9.22,14.85-4,6.42-8,12.84-12.02,19.25-3.4,5.42-6.85,10.81-10.25,16.22-4.49,7.14-8.96,14.3-13.45,21.44-3.32,5.28-6.67,10.55-10,15.82-6.84,10.85-13.67,21.71-20.52,32.55-6.04,9.57-12.07,19.15-18.19,28.67-1.08,1.68-2.37,3.35-3.94,4.55-2.15,1.65-4.67,1.77-7.21.46-4.13-2.13-5.26-6.3-4.25-10.18,1.52-5.85,2.9-11.74,4.4-17.6,1.46-5.74,3.01-11.45,4.47-17.19,1.01-3.98,1.91-7.98,2.9-11.97.63-2.53,1.49-5.02,1.98-7.58.63-3.3,1.91-6.41,2.55-9.71.66-3.38,1.73-6.67,2.56-10.02.83-3.31,1.55-6.64,2.39-9.94.66-2.63,1.42-5.23,2.23-8.16Zm-49.07-15.95c.78.07,1.23.15,1.68.15,8.6,0,17.2-.03,25.8.01,10.95.05,21.89.15,32.84.26,3.2.03,6.6,3.49,6.48,6.65-.06,1.56-.41,3.13-.76,4.66-1.04,4.46-2.11,8.9-3.23,13.34-1.7,6.76-3.47,13.5-5.18,20.25-1.21,4.77-2.39,9.54-3.56,14.32-.36,1.47-.66,2.95-.98,4.42.15.07.3.14.45.22,1.07-1.74,2.12-3.48,3.21-5.21,1.13-1.79,2.29-3.56,3.43-5.35,1.13-1.78,2.25-3.56,3.35-5.35,1.11-1.8,2.19-3.62,3.32-5.41,1.13-1.79,2.3-3.55,3.44-5.33,1.14-1.78,2.27-3.57,3.39-5.36,1.13-1.79,2.26-3.59,3.37-5.39,1.1-1.78,2.18-3.58,3.3-5.36,1.1-1.75,2.25-3.48,3.36-5.23,1.14-1.79,2.28-3.58,3.39-5.38,1.11-1.8,2.17-3.62,3.29-5.41,1.12-1.79,2.27-3.56,3.41-5.34,1.13-1.76,2.23-3.54,3.4-5.27,1.12-1.66,2.17-3.38,3.12-5.12.96-1.75,2.32-3.2,3.2-5,.92-1.88,2.25-3.56,3.38-5.33,1.14-1.78,2.26-3.57,3.38-5.36,1.11-1.77,2.2-3.54,3.44-5.52-.75,0-1.14,0-1.53,0-19.3,0-38.61.02-57.91-.06-1.37,0-2.88-.55-4.08-1.25-3.37-1.99-4.07-5.24-3.22-9.25.45-2.12.91-4.23,1.44-6.33,1.2-4.77,2.44-9.53,3.68-14.29,1.02-3.9,2.12-7.79,3.12-11.7.96-3.75,1.85-7.51,2.74-11.28.27-1.16.38-2.36.7-3.5.37-1.34.93-2.63,1.33-3.96.24-.83.34-1.7.49-2.55-2.12,2.87-3.92,5.83-5.75,8.76-.45.71-1.01,1.35-1.53,2.02-.32.37-.36.97-.63,1.42-1.81,2.97-3.66,5.9-5.51,8.84-5.78,9.18-11.56,18.36-17.35,27.54-3.77,5.97-7.55,11.93-11.31,17.91-4.86,7.72-9.71,15.45-14.57,23.17-1.2,1.91-2.44,3.8-3.82,5.95Z"/></g></svg>