<?xml version="1.0" encoding="UTF-8"?><svg id="Capa_2" xmlns="http://www.w3.org/2000/svg" viewBox="0 0 114.4 114.53"><defs><style>.cls-1{fill:#320064;}</style></defs><g id="Capa_1-2"><path class="cls-1" d="m56.41.18c1.46,0,2.93-.09,4.39.02,1.72.13,3.44.38,5.15.66,1.83.29,3.65.63,5.47,1.02,1.03.22,2.03.59,3.04.89,2.82.82,5.51,1.98,8.14,3.3.61.31,1.28.53,1.87.87,1.04.59,2.06,1.23,3.05,1.89,1.25.82,2.48,1.67,3.7,2.54.62.45,1.18.99,1.8,1.44,1.44,1.07,2.74,2.31,4.04,3.53,1.38,1.3,2.64,2.75,3.86,4.21,1.12,1.34,2.15,2.75,3.16,4.17.83,1.16,1.61,2.36,2.35,3.58.71,1.18,1.35,2.4,1.98,3.62.62,1.21,1.22,2.45,1.78,3.69.23.51.34,1.08.54,1.61.23.6.51,1.19.73,1.79.08.23.04.5.11.74.34,1.21.7,2.41,1.06,3.62.08.25.22.49.27.75.08.37.11.76.17,1.13.18,1.1.26,2.23.59,3.28.27.85.22,1.69.3,2.53.14,1.46.35,2.91.42,4.37.06,1.2-.04,2.41-.07,3.61,0,.07-.01.15-.02.22-.15,1.75-.28,3.51-.45,5.26-.29,2.95-.96,5.82-1.78,8.65-1.06,3.69-2.36,7.29-4.24,10.65-1.74,3.12-3.59,6.15-5.86,8.93-1.52,1.86-3.1,3.64-4.79,5.32-2.34,2.32-4.87,4.42-7.57,6.29-1.56,1.08-3.23,2.02-4.86,3-.78.47-1.57.93-2.39,1.32-1.09.52-2.24.92-3.32,1.45-1.82.89-3.73,1.48-5.67,2.02-1.58.44-3.19.79-4.8,1.12-1.64.34-3.3.63-4.95.88-.99.15-2.01.21-3.01.24-1.98.06-3.97.17-5.95.09-1.8-.07-3.6-.29-5.38-.56-2-.3-3.99-.69-5.97-1.11-.98-.21-1.92-.58-2.87-.89-.99-.32-1.98-.65-2.95-1.01-1.01-.38-2.01-.81-3.01-1.21-.71-.29-1.45-.53-2.14-.86-.71-.34-1.4-.75-2.08-1.15-1.17-.69-2.34-1.4-3.5-2.11-.63-.38-1.28-.73-1.88-1.15-.76-.53-1.5-1.11-2.23-1.69-1.28-1.02-2.56-2.05-3.82-3.11-.57-.48-1.11-.98-1.58-1.56-.57-.7-1.29-1.28-1.88-1.97-1.45-1.72-2.93-3.42-4.27-5.22-1.23-1.64-2.35-3.37-3.43-5.12-1.45-2.35-2.67-4.83-3.59-7.43-.89-2.51-1.65-5.07-2.41-7.63-.24-.79-.27-1.64-.42-2.46-.27-1.44-.59-2.87-.85-4.3-.13-.7-.23-1.41-.24-2.12-.06-2.56-.16-5.13-.09-7.69.04-1.65.29-3.3.55-4.93.35-2.1.77-4.2,1.23-6.28.27-1.23.64-2.44,1.06-3.63.56-1.59,1.19-3.15,1.82-4.71.44-1.1.85-2.23,1.4-3.28.58-1.12,1.28-2.18,1.97-3.24,1.01-1.56,2.02-3.13,3.11-4.64.81-1.13,1.73-2.18,2.65-3.23,1.05-1.21,2.08-2.45,3.24-3.56,1.53-1.46,3.15-2.84,4.77-4.2,3.45-2.88,7.25-5.22,11.33-7.09,3.37-1.54,6.88-2.75,10.5-3.59,1.8-.42,3.6-.8,5.42-1.12,1.04-.19,2.11-.25,3.16-.34,1.39-.12,2.79-.21,4.18-.31,0,.06,0,.12,0,.18Zm-2.6,6.73c-1.06.1-2.12.2-3.17.31-.96.1-1.93.16-2.87.37-1.76.39-3.52.82-5.25,1.34-1.13.34-2.29.55-3.36,1.1-1.32.69-2.73,1.19-4.08,1.83-1.17.55-2.32,1.13-3.44,1.78-2.45,1.43-4.72,3.12-6.91,4.92-1.44,1.18-2.76,2.51-4.07,3.83-.91.91-1.78,1.87-2.55,2.9-.73.99-1.58,1.88-2.22,2.95-.37.63-.85,1.19-1.22,1.82-.92,1.54-1.92,3.05-2.69,4.66-.93,1.94-1.71,3.97-2.47,5.99-.52,1.38-1,2.79-1.33,4.22-.43,1.91-.75,3.85-1.02,5.8-.23,1.65-.38,3.32-.44,4.99-.06,1.68.03,3.37.09,5.06.03.95.09,1.91.23,2.86.22,1.51.49,3.01.77,4.52.41,2.18,1.07,4.28,1.89,6.33.4,1.01.83,2,1.25,3,.39.93.76,1.87,1.21,2.77.38.77.87,1.48,1.31,2.22.62,1.06,1.16,2.17,1.87,3.16,1.18,1.65,2.37,3.31,3.71,4.83,2.18,2.46,4.55,4.72,7.17,6.72,2.91,2.21,5.92,4.26,9.26,5.76,1.87.84,3.77,1.64,5.71,2.31,1.77.61,3.59,1.06,5.41,1.5,1.16.28,2.36.42,3.54.61.85.13,1.7.24,2.55.34,1,.13,1.18,0,1.18-.79,0-32.85,0-65.71,0-98.56,0-.45-.04-.9-.07-1.44Zm6.7,47.02h47.12c-.27-2.26-.54-4.47-.8-6.66h-46.31v6.66Zm46.31,13.43c0-.31-.02-.55,0-.78.21-1.82.41-3.64.68-5.45.07-.49-.1-.48-.47-.48-2.85,0-5.7-.02-8.55-.02-12.33,0-24.65,0-36.98.01-.31,0-.62,0-.95,0v6.72h46.26Zm-1.94,6.72h-44.29c-.03.1-.06.15-.06.2,0,2.05,0,4.1-.02,6.15,0,.43.23.37.5.37,13.14,0,26.29,0,39.43,0,.37,0,.75.03,1.11-.02.19-.03.44-.15.51-.3.71-1.47,1.41-2.96,2.08-4.45.27-.61.48-1.26.73-1.94Zm-44.32-40.27c-.01.17-.03.26-.03.35,0,1.99,0,3.98-.02,5.98,0,.43.18.42.5.42,14.2,0,28.4,0,42.61-.01.38,0,.77,0,1.23,0-.11-.23-.19-.36-.25-.51-.8-1.91-1.61-3.82-2.4-5.74-.16-.38-.38-.55-.82-.53-.97.05-1.93.02-2.9.02-11.5,0-23.01,0-34.51,0-1.11,0-2.23,0-3.4,0Zm0-13.41v6.72h37.08c-.1-.18-.14-.32-.23-.42-1.66-1.89-3.34-3.76-4.98-5.67-.46-.53-.99-.67-1.66-.67-8.86.02-17.72.02-26.58.03-1.19,0-2.38,0-3.62,0Zm37.16,67.12h-37.3c.04.47.11.89.11,1.3.01,1.53.04,3.06,0,4.58-.02.69.11.82.82.82,5.34-.01,10.69,0,16.03,0,4.58,0,9.16,0,13.74-.02.25,0,.57-.06.75-.22.65-.58,1.29-1.18,1.87-1.83,1.05-1.16,2.05-2.35,3.07-3.53.29-.33.56-.67.91-1.1Zm-15.11,13.44h-22.04v6.73c7.88-.43,15.15-2.76,22.04-6.73ZM60.55,13.68h21.58c.07-.09.14-.18.21-.27-.15-.05-.32-.07-.46-.15-6.6-3.8-13.71-5.87-21.33-6.32v6.74Z"/></g></svg>