<?xml version="1.0" encoding="UTF-8"?><svg id="Capa_2" xmlns="http://www.w3.org/2000/svg" viewBox="0 0 154.85 181.83"><defs><style>.cls-1{fill:#320064;}</style></defs><g id="Capa_1-2"><path class="cls-1" d="m1.66,96.93c.1-.19.29-.38.27-.54-.15-1.28-.35-2.55-.5-3.83-.15-1.24-.23-2.49-.37-3.73-.08-.68-.28-1.35-.33-2.02-.06-.76.03-1.53-.01-2.29-.16-3.07-.45-6.14-.51-9.22C.07,68.2.03,61.1,0,54.01c-.01-2.83.1-5.66.17-8.49.12-4.95,1.36-9.54,4.38-13.54,1.35-1.79,3.04-3.27,4.96-4.42,2.88-1.73,6.04-2.59,9.39-2.92,3.59-.35,7.18-.82,10.74-1.42,3.02-.51,6.05-1.09,8.98-1.97,3.27-.98,6.44-2.26,9.62-3.52,3.96-1.57,7.57-3.81,11.04-6.23,2.17-1.52,4.21-3.24,6.27-4.91,2.04-1.64,3.94-3.48,6.1-4.94,1.21-.82,2.8-1.2,4.27-1.48,3.97-.78,7.09,1.03,9.95,3.52.26.22.61.34.86.57.32.29.53.7.86.97,1.86,1.58,3.64,3.26,5.63,4.66,2.92,2.05,5.91,4.05,9.04,5.76,3.08,1.68,6.32,3.06,9.63,4.32,3.17,1.2,6.44,1.9,9.66,2.84,1.48.43,3.06.53,4.6.77,1.2.19,2.4.39,3.6.54,1.33.16,2.67.24,4,.38,1.07.11,2.14.23,3.21.35,1.05.12,2.15.09,3.15.4,1.34.41,2.65,1,3.9,1.66,2.46,1.3,4.62,3,6.32,5.23,1.79,2.34,3.03,4.96,3.64,7.84.23,1.08.33,2.19.36,3.3.15,4.83.26,9.67.36,14.51.08,3.9.18,7.79.16,11.69-.01,2.82-.18,5.64-.33,8.45-.14,2.57-.32,5.14-.54,7.7-.26,3.04-.55,6.08-.91,9.12-.19,1.57-.56,3.12-.85,4.68-.41,2.18-.77,4.38-1.26,6.55-.66,2.91-1.37,5.81-2.15,8.69-.58,2.13-1.2,4.26-1.96,6.33-.81,2.22-1.78,4.38-2.73,6.54-.74,1.67-1.47,3.36-2.39,4.93-1.98,3.4-4.03,6.77-6.15,10.09-2.27,3.55-4.76,6.95-7.81,9.88-1.09,1.04-2.14,2.13-3.25,3.15-2.7,2.47-5.29,5.06-8.15,7.34-2.7,2.15-5.6,4.1-8.56,5.87-1.46.87-2.8,1.94-4.36,2.68-1.55.73-3.01,1.66-4.55,2.4-2.15,1.04-4.3,2.11-6.53,2.93-.89.33-1.65.84-2.53,1.17-3.19,1.18-6.34,2.45-9.56,3.51-1.11.36-2.4.12-3.58.31-1.34.21-2.56-.22-3.74-.6-2.01-.65-3.98-1.47-5.93-2.32-4.07-1.78-8.13-3.6-12.16-5.48-1.26-.59-2.43-1.39-3.61-2.12-3.43-2.12-6.96-4.11-10.25-6.43-2.84-2-5.55-4.23-8.07-6.62-3.19-3.01-6.29-6.13-9.13-9.46-3.57-4.17-6.6-8.75-9.25-13.56-.58-1.05-1.2-2.08-1.74-3.16-.18-.36-.11-.83-.21-1.24-.07-.27-.22-.53-.39-.76-.28-.37-.7-.67-.88-1.08-.95-2.06-2.02-4.09-2.74-6.24-1.42-4.23-2.71-8.51-3.93-12.8-.72-2.52-1.23-5.11-1.8-7.67-.25-1.15-.56-2.31-.57-3.47,0-.77-.19-1.34-.61-1.85Zm142.26-51.37c-.06-.74-.09-1.86-.24-2.96-.45-3.27-2.2-5.59-5.31-6.69-1.34-.47-2.82-.59-4.25-.72-.84-.07-1.62-.35-2.41-.48-1.41-.23-2.91.09-4.33-.12-2.8-.41-5.58-1-8.36-1.57-2.04-.42-4.07-.85-6.03-1.57-2.37-.87-4.84-1.5-7.13-2.52-4.01-1.79-8.02-3.61-11.84-5.76-5.83-3.29-10.84-7.73-15.84-12.13-.5-.44-.94-.58-1.49-.09-1.82,1.61-3.64,3.2-5.48,4.78-4.45,3.82-9.29,7.09-14.49,9.79-2.97,1.54-6.11,2.73-9.17,4.09-.68.3-1.32.7-2.02.91-1.01.31-2.06.49-3.08.75-1.16.29-2.37.51-3.47.96-1.12.45-2.31.48-3.45.75-2.86.68-5.8,1.07-8.73,1.48-2.68.37-5.38.54-8.06.95-1.3.2-2.73.45-3.78,1.16-2.68,1.79-4.04,4.45-4.12,7.7-.06,2.28-.05,4.56-.07,6.85-.01,1.81.03,3.61-.05,5.42-.07,1.44.32,2.94-.41,4.32-.05.1.04.28.06.42.09.51.26,1.01.27,1.52.03,2.28.01,4.56.01,6.84,0,1.81-.07,3.62.02,5.42.11,2.48.3,4.96.53,7.44.12,1.3-.45,2.67.43,3.88.05.06.06.16.06.25.11,1.54.17,3.09.34,4.63.2,1.84.48,3.68.77,5.52.3,1.95.37,3.93.97,5.85.6,1.92.98,3.91,1.5,5.85.5,1.9,1.02,3.8,1.6,5.68,1.51,4.9,3.53,9.6,5.89,14.14,1.28,2.47,2.71,4.87,4.25,7.19,1.56,2.35,3.29,4.61,5.05,6.82,1.29,1.62,2.68,3.17,4.15,4.64,1.64,1.63,3.39,3.17,5.16,4.67,1.99,1.68,3.97,3.39,6.1,4.87,2.79,1.93,5.69,3.69,8.61,5.43,1.98,1.18,4,2.32,6.1,3.25,4.57,2.03,9.2,3.92,13.81,5.86.83.35,1.67.37,2.53.02,2.24-.92,4.53-1.74,6.75-2.69,3.08-1.33,6.18-2.62,9.15-4.16,3.23-1.66,6.36-3.51,9.45-5.42,3.24-2,6.28-4.29,9.07-6.9,1.9-1.78,3.88-3.49,5.71-5.35,1.71-1.73,3.28-3.6,4.89-5.44,2.72-3.11,5-6.55,7-10.15,1.29-2.32,2.44-4.74,3.55-7.16,1.06-2.31,2.16-4.62,2.93-7.03,1.2-3.75,2.18-7.58,3.19-11.39.46-1.73.81-3.49,1.15-5.25.28-1.44.5-2.89.71-4.34.26-1.82.5-3.65.71-5.48.09-.78.06-1.58.15-2.37.23-2.1.56-4.19.73-6.3.19-2.28.28-4.57.37-6.85.09-2.15.16-4.3.17-6.44,0-3.61-.03-7.22-.08-10.84-.05-3.84-.14-7.68-.21-11.89Z"/><path class="cls-1" d="m77.2,136.4c-3.85-.02-7.57-.75-11.26-1.7-5.49-1.41-10.43-3.92-15.05-7.15-5.84-4.08-10.14-9.48-13.51-15.68-2.02-3.73-3.39-7.7-4.3-11.82-.44-2-.53-4.07-.74-6.12-.11-1.08-.16-2.16-.19-3.25-.11-4.04.63-7.98,1.7-11.84,2-7.22,5.66-13.57,10.75-19.02,3.54-3.79,7.72-6.81,12.35-9.19,3.63-1.87,7.47-3.19,11.43-4.06,2.18-.48,4.46-.6,6.7-.73,1.92-.12,3.86-.16,5.77,0,3.1.26,6.19.72,9.15,1.76,2.85,1,5.78,1.89,8.44,3.29,3.17,1.66,6.09,3.75,8.82,6.14,4.76,4.15,8.37,9.12,11.1,14.77,1.71,3.54,2.9,7.26,3.47,11.16.33,2.27.56,4.56.71,6.85.36,5.59-.72,10.99-2.52,16.24-.85,2.48-1.88,4.91-3.42,7.1-.97,1.38-1.61,3-2.63,4.33-1.53,2-3.14,3.99-4.96,5.72-2.1,1.99-4.39,3.79-6.74,5.48-1.65,1.19-3.44,2.32-5.34,2.99-1.4.49-2.56,1.4-3.99,1.77-1.4.36-2.74.98-4.14,1.3-2.16.48-4.34.84-6.53,1.16-1.67.24-3.37.34-5.05.5Zm-4.19-80.09s-.22.29-.45.33c-2.27.34-4.46.85-6.66,1.65-1.55.57-3.03,1.27-4.52,1.93-1.07.47-2.04,1.21-3.01,1.89-1.53,1.08-3.13,2.1-4.52,3.35-2.63,2.37-4.79,5.15-6.55,8.23-1.12,1.97-1.95,4.06-2.81,6.15-.58,1.44-.41,3.14-1.56,4.36-.04.04,0,.14,0,.21,0,.88.11,1.78,0,2.65-.32,2.71-.4,5.39,0,8.11.47,3.16,1.18,6.24,2.44,9.19,2.67,6.26,6.74,11.39,12.38,15.2,5.43,3.66,11.34,5.87,18.01,5.99,3.02.05,5.99-.14,8.94-.68,3.47-.65,6.74-1.96,9.77-3.75,2.02-1.19,3.98-2.55,5.74-4.08,1.64-1.42,3.04-3.13,4.46-4.79,2.09-2.44,3.64-5.24,4.82-8.21.76-1.91,1.38-3.91,1.78-5.93.43-2.12.64-4.3.73-6.47.07-1.77-.09-3.57-.34-5.33-.29-1.99-.64-4-1.23-5.91-1.97-6.42-5.63-11.77-10.75-16.09-3.58-3.02-7.62-5.23-12.11-6.57-4.11-1.23-8.33-1.63-12.6-1.45-.6.02-1.2,0-1.97,0Z"/><path class="cls-1" d="m69.28,97.94c1.79-1.72,3.47-3.29,5.09-4.9,4.93-4.91,9.82-9.86,14.77-14.74,1.03-1.02,1.89-2.21,3.47-2.69,2.94-.9,6.44,1.43,6.73,4.16.21,1.99-.33,3.53-1.66,4.87-6.31,6.33-12.63,12.65-18.96,18.97-1.59,1.59-3.28,3.09-4.83,4.72-1.03,1.08-2.02,2.05-3.56,2.38-1.77.39-3.27-.1-4.47-1.27-3.25-3.19-6.4-6.47-9.59-9.72-1.33-1.36-1.79-3-1.55-4.87.18-1.43,1.97-3.52,3.37-3.89,1.47-.39,2.83-.22,4.28.38,1.16.48,1.7,1.47,2.52,2.21,1.55,1.41,2.98,2.95,4.4,4.37Z"/></g></svg>