<?xml version="1.0" encoding="UTF-8"?><svg id="Capa_2" xmlns="http://www.w3.org/2000/svg" viewBox="0 0 191.57 191.33"><g id="Capa_1-2"><path d="m20.02,125.59c.23-.15.48-.25.65-.42,9.85-9.84,19.69-19.69,29.53-29.53,6.39-6.39,12.77-12.79,19.17-19.16,3.23-3.22,7.15-5.23,11.57-6.27,2.99-.71,6.02-.55,9.01-.16,1.5.2,2.96.87,4.41,1.4,3.64,1.33,6.54,3.61,9.17,6.47,3.3,3.59,6.93,6.86,10.39,10.31,11.02,11,22.03,22.02,33.05,33.04.17.17.31.39.51.64.59-.51,1.12-.91,1.59-1.38,5.16-5.15,10.32-10.3,15.46-15.46,3.15-3.16,6.24-6.36,9.4-9.52,2.25-2.25,4.57-4.45,6.83-6.69.83-.82,1.62-1.7,2.39-2.58.19-.22.3-.6.3-.9.03-14.05.04-28.1.05-42.15,0-5.26.08-10.53-.05-15.79-.07-2.85-1.43-5.18-4-6.52-1.34-.7-2.85-1.1-4.45-1.08-5.61.05-11.22.02-16.82.02-35.73,0-71.47,0-107.2,0-1.17,0-2.35.12-3.37-.7-1.45-1.18-2.01-2.01-1.54-4.04.47-2.05,2.02-3.24,4.15-3.24,24.33,0,48.66,0,72.99,0,17.04,0,34.08-.01,51.12.02,1.69,0,3.4.1,5.06.4,1.14.21,2.23.76,3.28,1.3,2.52,1.28,4.63,3.08,6.15,5.47,1.56,2.46,2.49,5.11,2.49,8.1.04,48.96.11,97.92.17,146.88,0,1.25.24,2.56-.07,3.72-.77,2.92-1.74,5.77-3.87,8.09-2.63,2.87-5.86,4.55-9.63,5.23-1.21.22-2.46.23-3.69.23-48.23.01-96.45,0-144.68.05-2.24,0-4.39-.14-6.51-.79-2.81-.86-5.22-2.38-7.07-4.63-1.99-2.42-3.39-5.16-3.71-8.34-.12-1.19-.2-2.39-.2-3.59-.01-40.87,0-81.74,0-122.62,0-.83-.1-1.7.1-2.49.51-2.08,1.74-3.03,3.92-3.21.4-.03.92-.18,1.18,0,1.23.88,2.5,1.79,2.69,3.49.05.46.09.93.09,1.4,0,23.58,0,47.17,0,70.75,0,1.37,0,2.75,0,4.28Zm81.46,57.71v-.02c24.45,0,48.91,0,73.36-.01.94,0,1.94-.02,2.81-.33,4.07-1.43,5.62-4.02,5.83-8.04.08-1.58-.12-3.17-.03-4.74.04-.71.06-1.25-.47-1.77-3.08-3.08-6.14-6.18-9.22-9.26-25-25-50-50-75.02-74.99-1.24-1.23-2.48-2.52-3.92-3.47-1.51-1-3.21-1.82-4.94-2.38-2.31-.74-4.75-.94-7.16-.4-3.09.7-5.73,2.24-7.97,4.48-3.71,3.7-7.4,7.41-11.11,11.11-3.75,3.74-7.53,7.46-11.27,11.2-10.53,10.52-21.05,21.06-31.6,31.57-.56.56-.77,1.11-.76,1.87.01,12.21.01,24.42,0,36.63,0,2.25.45,4.31,2.07,5.97,1.86,1.91,4.12,2.6,6.78,2.6,24.2-.04,48.41-.02,72.61-.02Zm81.96-85.5c-9.93,9.92-19.99,19.97-29.98,29.95,9.84,9.82,19.83,19.78,29.98,29.91v-59.86Z"/><path d="m35.96,5.27c.34,3.96,1.33,7.71,3.49,11.1,1.46,2.28,3.11,4.42,5.32,6.01,1.55,1.12,3.27,2.01,4.94,2.94.87.49,1.77.95,2.71,1.26,1.54.5,3.1.94,4.76.98,1.29.03,2.58.34,3.86.53,1.19.18,2.44,1.51,2.59,2.7.41,3.2-1.39,4.79-4.37,5-1.98.14-3.96.56-5.9,1.01-4.57,1.07-8.32,3.55-11.38,7.06-2.32,2.66-3.93,5.72-5.13,9.04-.71,1.98-.81,3.97-.9,6.01-.06,1.37-.24,2.77-1.4,3.76-1.27,1.08-2.77,1.28-4.2.68-1.22-.51-2.06-1.59-2.22-3.02-.2-1.8-.2-3.64-.61-5.39-.45-1.9-1.24-3.73-1.95-5.56-1.31-3.41-3.67-6.04-6.48-8.23-3.06-2.39-6.48-4.18-10.37-4.82-1.62-.27-3.25-.42-4.88-.56-1.41-.12-2.39-.85-3.17-1.97-.9-1.3-.82-2.63-.14-3.95.66-1.3,1.77-1.91,3.24-1.96,5.35-.16,10.19-1.86,14.48-5.01,3.67-2.69,6.44-6.09,8.03-10.44.81-2.22,1.4-4.43,1.48-6.79.03-.96.18-1.93.37-2.88.31-1.54,1.95-2.66,3.26-2.76,3.26-.23,4.33,1.95,4.57,4.42.03.28,0,.56,0,.84Zm8.44,26.63c-.05-.16-.06-.29-.11-.32-.34-.21-.7-.38-1.03-.59-4.47-2.75-7.94-6.47-10.66-10.93-.63-1.04-.64-1.05-1.27-.04-2.92,4.67-6.51,8.66-11.47,11.26-.26.14-.45.39-.68.6,5.54,2.8,9.56,7.06,12.74,12.6,3.09-5.44,7.29-9.53,12.49-12.58Z"/><path d="m143.5,27.91c10.85-.43,20.2,9.04,20,20.19-.19,10.7-9.17,19.95-20.9,19.57-9.91-.32-19.41-8.88-18.94-20.97.34-8.79,8.17-19.09,19.84-18.79Zm-1.1,7.81c-1.28-.17-2.87.58-4.42,1.44-.74.41-1.6.69-2.2,1.25-1.45,1.35-2.5,3.04-3.3,4.84-.39.87-.72,1.83-.78,2.77-.13,2.34.01,4.59,1.14,6.83,1.21,2.41,2.95,4.12,5.17,5.42.81.47,1.81.6,2.65,1.03,1.52.78,3.18.52,4.63.29,4.78-.76,9.92-5.14,9.75-9.89.7-1.12.58-2.31.37-3.52-.28-1.65-.59-3.29-1.52-4.73-2.56-3.95-6.3-5.68-11.49-5.74Z"/></g></svg>