<?xml version="1.0" encoding="UTF-8"?><svg id="Capa_2" xmlns="http://www.w3.org/2000/svg" viewBox="0 0 140.65 114.54"><g id="Capa_1-2"><path d="m83.2,9.73c-1.6.1-2.99.19-4.38.28-.05,0-.1.02-.15,0-.84-.17-1.62.1-2.43.29-1.47.35-2.97.55-4.42.94-2.4.65-4.86,1.14-7.04,2.48-1.05.64-2.3.94-3.37,1.56-2.07,1.19-4.11,2.45-6.08,3.78-1.31.89-2.47,2-3.75,2.94-2.63,1.93-6.56.82-7.49-2.78-.51-2,.16-3.87,1.84-5.18,2.16-1.69,4.33-3.39,6.61-4.91,3.46-2.31,7.19-4.15,11.11-5.55,2.17-.77,4.37-1.48,6.6-2.06,1.63-.42,3.33-.61,5-.88C78.57.12,81.93.05,85.29,0c.96-.01,1.86.27,2.83.23.98-.05,1.98.24,2.96.42,2.21.4,4.44.68,6.6,1.26,2.72.73,5.4,1.61,8.03,2.61,1.89.72,3.73,1.64,5.49,2.65,2.06,1.19,4.04,2.53,6.01,3.87,3.08,2.09,5.71,4.7,8.28,7.36,2.32,2.39,4.35,5.03,6.02,7.9,1.56,2.68,2.99,5.44,4.41,8.2.57,1.11,1.03,2.28,1.44,3.46,1.13,3.26,2.02,6.6,2.52,10.02.27,1.84.49,3.69.6,5.55.13,2.23.21,4.48.15,6.71-.05,1.64-.42,3.28-.58,4.92-.39,3.96-1.48,7.75-2.76,11.5-1.85,5.42-4.55,10.41-8.07,14.92-1.68,2.15-3.43,4.28-5.36,6.21-4.48,4.49-9.58,8.18-15.32,10.9-1.91.91-3.89,1.7-5.88,2.39-2.3.79-4.64,1.48-7,2.08-1.61.4-3.28.59-4.94.82-1.14.16-2.3.19-3.45.35-2.42.32-4.85.24-7.25.08-3.21-.22-6.41-.66-9.56-1.41-3.02-.71-5.95-1.66-8.77-2.91-2.08-.92-4.16-1.88-6.13-3-2.24-1.28-4.47-2.63-6.52-4.18-1.55-1.17-3.24-2.26-4.35-3.95-1.3-1.98-.79-5.47,1.82-6.7,2.32-1.1,4.29-.62,6.07.97,3.48,3.13,7.49,5.42,11.68,7.43,2.85,1.37,5.83,2.34,8.9,3.05,1.48.34,3.03.39,4.53.65,2.67.46,5.37.35,8.05.31,2.34-.03,4.64-.45,6.95-.84,3.27-.55,6.35-1.67,9.39-2.9,3.19-1.29,6.14-3.03,8.95-5.02,2.87-2.03,5.5-4.33,7.79-7.01,1.09-1.27,2.28-2.47,3.2-3.85,1.6-2.41,3.31-4.76,4.29-7.54.83-2.35,1.88-4.62,2.71-6.98.35-1.01.9-2.05.52-3.23-.05-.16.36-.43.4-.67.28-1.89.62-3.78.76-5.69.16-2.21.22-4.44.18-6.65-.03-1.53-.19-3.08-.48-4.59-.4-2.11-.83-4.25-1.51-6.28-.88-2.63-1.94-5.2-3.09-7.73-1.63-3.61-3.96-6.78-6.55-9.75-1.15-1.32-2.4-2.57-3.72-3.71-1.48-1.3-3.06-2.49-4.67-3.64-1.1-.79-2.3-1.44-3.47-2.12-1.22-.72-2.45-1.43-3.71-2.09-.54-.29-1.16-.44-1.73-.68-1.41-.58-2.81-1.19-4.22-1.76-.38-.15-.8-.19-1.21-.29-1.2-.29-2.39-.61-3.6-.86-1.17-.24-2.34-.48-3.52-.59-2.12-.2-4.24-.31-6.17-.45Z"/><path d="m75.93,41.57c0-4.37,0-8.74,0-13.11,0-2.14,1.42-4.2,3.51-4.68,2.86-.66,5.6.54,6.15,3.83.12.69.15,1.4.15,2.11.01,7.31.01,14.62,0,21.93,0,.74.2,1.29.73,1.82,6.16,6.13,12.26,12.32,18.47,18.4,1.66,1.63,1.93,3.43,1.48,5.47-.34,1.53-2.52,2.97-4.12,3.1-1.83.15-3.17-.6-4.41-1.85-6.21-6.26-12.46-12.48-18.7-18.71-1.07-1.07-2.3-1.99-2.88-3.46-.19-.48-.35-1-.35-1.5-.03-4.45-.02-8.89-.02-13.34h0Z"/><path d="m37.61,85.05c-6.34,0-12.68-.03-19.02.01-2.39.01-4.09-.97-5.06-3.13-.66-1.46-.4-3.84.9-5.15,1.19-1.2,2.57-1.56,4.14-1.56,6.42,0,12.83,0,19.25,0,6.29,0,12.58.02,18.86-.01,2.41-.01,4.28.92,5.18,3.13.62,1.52.49,3.21-.56,4.63-.98,1.32-2.3,2.05-3.99,2.05-6.57,0-13.14,0-19.71,0,0,.01,0,.02,0,.04Z"/><path d="m24.45,39.25c-6.49,0-12.98,0-19.48,0-2.68,0-5.27-2.58-4.95-5.3.27-2.31,1.86-4.26,4.51-4.49.38-.03.77-.03,1.15-.03,12.57,0,25.15.01,37.72-.01,2.22,0,4,.68,5.07,2.72,1.56,2.99-.23,6.47-3.36,6.99-.57.09-1.15.12-1.72.12-6.31,0-12.63,0-18.94,0v-.02Z"/><path d="m30.78,62.14c-6.52,0-13.03,0-19.55,0-1.65,0-3.94-1.45-4.29-3.18-.22-1.08-.3-2.2-.28-3.3,0-.39.49-.77.74-1.16.94-1.48,2.41-2.13,4.04-2.14,12.96-.05,25.91-.05,38.87-.01,2.57,0,4.32.96,5.13,3.49.91,2.81-1.01,5.93-4.07,6.15-.86.06-1.72.15-2.58.15-6.01.01-12.01,0-18.02,0,0,0,0,0,0-.01Z"/></g></svg>