<?xml version="1.0" encoding="UTF-8"?><svg id="Capa_2" xmlns="http://www.w3.org/2000/svg" viewBox="0 0 95.38 95.34"><g id="Capa_1-2"><path d="m.17,48.59c0-10.3,0-20.59,0-30.89,0-.74-.14-1.48-.16-2.22-.01-.51.05-1.03.13-1.53.17-1.06.29-2.13.58-3.15.56-1.99,1.48-3.82,2.79-5.42.68-.82,1.43-1.59,2.2-2.33.97-.93,2.15-1.5,3.41-1.96C10.53.57,11.97.22,13.48.05c1.43-.15,2.8.05,4.2.22,2,.23,3.75,1.1,5.49,2.02,1.11.59,2.25,1.12,3.38,1.68,1.14.57,2.28,1.13,3.42,1.7.59.29,1.16.62,1.75.89.47.21.98.35,1.46.56.36.16.68.39,1.03.58,1.45.78,2.88,1.57,4.35,2.32,2.97,1.52,5.95,3.02,8.94,4.51.48.24,1.01.36,1.48.6.64.33,1.23.77,1.88,1.1,3.59,1.83,7.2,3.65,10.79,5.47,1.94.98,3.88,1.99,5.83,2.96.53.26,1.13.39,1.65.66.56.28,1.04.71,1.59,1,4.66,2.37,9.32,4.72,13.98,7.09,2.52,1.28,4.83,2.84,6.75,4.94,1.2,1.32,2.22,2.76,2.91,4.41.25.61.58,1.19.76,1.81.14.51.07,1.07.15,1.6.18,1.26.15,2.52-.1,3.76-.45,2.3-1.35,4.39-2.88,6.19-1.48,1.74-3.17,3.24-5.13,4.4-1.63.96-3.31,1.84-4.99,2.71-3.38,1.74-6.78,3.45-10.18,5.16-2.74,1.38-5.5,2.74-8.24,4.12-.53.27-.99.66-1.51.93-.37.19-.8.25-1.17.44-.53.27-1.01.63-1.53.91-.39.21-.82.34-1.23.53-.43.2-.85.41-1.28.62-2.61,1.31-5.22,2.63-7.83,3.95-1.3.65-2.6,1.3-3.89,1.97-1.04.54-2.04,1.14-3.09,1.66-4.15,2.07-8.31,4.11-12.46,6.16-2.4,1.19-4.81,2.37-7.2,3.59-1.59.81-3.26,1.46-5,1.77-1.32.24-2.71.15-4.05.28-1.78.17-3.4-.36-4.98-1.04-1.35-.58-2.49-1.46-3.52-2.53-1.16-1.21-2.22-2.47-2.98-3.97-.82-1.62-1.47-3.31-1.66-5.12-.13-1.22-.16-2.45-.2-3.67-.03-.73,0-1.47,0-2.2,0-9.39,0-18.79,0-28.18ZM15.2,9.47c-.5.03-.99.1-1.47.08-.88-.03-1.58.3-2.16.95-1.19,1.32-1.68,2.91-1.82,4.63-.04.53.1,1.08.1,1.61,0,20.73,0,41.46,0,62.18,0,.8-.03,1.61.09,2.39.18,1.18.76,2.22,1.54,3.12.36.41.86.87,1.36.97,1.64.33,3.3.36,4.85-.47,1.54-.83,3.07-1.68,4.63-2.47,4.06-2.05,8.13-4.07,12.19-6.11,1.58-.79,3.13-1.65,4.71-2.43,1.8-.89,3.64-1.7,5.44-2.59.91-.45,1.74-1.06,2.64-1.53,2.55-1.31,5.13-2.57,7.69-3.87,2.63-1.33,5.24-2.7,7.87-4.03,2.51-1.27,5.02-2.53,7.53-3.8,2.23-1.12,4.48-2.22,6.69-3.38,1.86-.97,3.69-1.98,5.5-3.04,1.18-.69,2.18-1.6,2.82-2.84.18-.35.42-.72.15-1.14-.03-.05-.08-.15-.06-.18.42-.6.08-1.12-.23-1.59-.92-1.4-2.17-2.47-3.63-3.27-1.3-.71-2.64-1.35-3.96-2.02-4.53-2.28-9.06-4.55-13.58-6.85-1.21-.61-2.36-1.32-3.56-1.95-.57-.3-1.2-.47-1.78-.76-2.09-1.04-4.17-2.12-6.26-3.15-1.3-.64-2.64-1.2-3.94-1.83-.77-.37-1.5-.8-2.25-1.21-.4-.22-.81-.42-1.22-.63-1.57-.8-3.13-1.63-4.72-2.39-.44-.21-.81-.38-.83-.89-.34-.03-.67.03-.93-.09-1.09-.47-2.18-.96-3.23-1.51-2.18-1.13-4.34-2.32-6.52-3.45-1.61-.83-3.28-1.56-4.88-2.42-.93-.5-2.01-.8-2.69-1.72-.04-.06-.16-.07-.25-.09-.3-.07-.63-.08-.9-.2-1.16-.52-2.29-1.09-3.45-1.6-.49-.21-1.02-.32-1.48-.46Z"/></g></svg>