<?xml version="1.0" encoding="UTF-8"?><svg id="Capa_2" xmlns="http://www.w3.org/2000/svg" viewBox="0 0 337.21 337.02"><g id="Capa_1-2"><path d="m258.84,337.02c-59.19-.07-118.38-.05-177.58-.05-2.56,0-5.13-.09-7.69-.03-17.21.42-31.97-5.83-45.29-16.31-13.25-10.43-21.29-24.11-25.93-40.12-1.61-5.54-2.15-11.03-1.62-16.7.13-1.45,0-2.93,0-4.39,0-59.69.01-119.38-.03-179.07,0-3.35-.61-6.7-.7-10.06-.03-1.25.73-2.5.89-3.77,1.7-13.58,6.78-25.77,15.06-36.61,8.24-10.79,18.67-18.82,31.44-23.41,5.72-2.06,11.79-3.3,17.8-4.35,13.26-2.31,26.66-.63,39.99-.92,13.42-.29,26.85-.06,40.27-.06,17.33,0,34.66,0,51.99,0,3.81,0,7.41.55,10.14,3.58.4.45,1.01.82,1.18,1.34,1.08,3.18,2.1,6.38,3.04,9.61.1.35-.35.89-.59,1.31-3.16,5.56-8.03,7.65-14.32,7.64-40.03-.08-80.06-.04-120.09-.05-8.67,0-17.06,1.38-24.84,5.35-14.16,7.21-23.1,18.69-26.77,34.07-.99,4.16-.98,8.62-.99,12.94-.06,49.93-.04,99.85-.04,149.78,0,.85,0,1.7,0,3.26,9.69-11.56,19.09-22.42,28.08-33.62,5.6-6.98,11.16-13.86,19.7-17.36,3.35-1.38,6.86-2.49,10.39-3.28,11.68-2.63,22.67.27,32.04,6.81,6.46,4.51,11.32,11.32,16.82,17.18,2.04,2.18,3.86,4.58,5.77,6.89,1.25,1.51,2.07.99,3.21-.32,4.97-5.71,10.1-11.28,15.11-16.96,6.72-7.63,13.65-15.09,19.96-23.03,4.71-5.93,9.14-12.05,15.64-16.14,4.8-3.02,9.8-5.49,15.82-5.36,3.36.07,6.79-1.47,10.12-1.26,13.41.85,25.07,5.33,33.49,16.64,3.65,4.91,8.15,9.19,12.19,13.82,7.9,9.06,15.64,18.25,23.66,27.19,3.25,3.62,7.24,6.57,10.54,10.16,2.51,2.72,4.41,5.99,6.67,8.95,1.67,2.19,3.39,4.36,5.29,6.35.69.73,2.25,1.54,2.86,1.22.8-.41,1.48-1.89,1.48-2.91.07-29.17,0-58.35.16-87.52.01-2.39,1.42-4.82,2.37-7.15.47-1.16,1.36-2.14,2.08-3.25,2.19-.14,4.58-.4,6.98-.42,6.27-.06,8.85,3.45,10.51,9.55,2.44,8.94,1.08,17.82,1.15,26.69.29,33.2.36,66.41.02,99.6-.2,19.95-6.82,35.98-19.33,50.2-9.88,11.23-22.16,18.19-36.45,21.96m5.63-27.78c14.51-7.89,22.12-20.63,25.21-36.4.32-1.61-.06-3.66-.85-5.11-1.23-2.28-2.99-4.3-4.71-6.28-3.95-4.55-8.04-8.98-12.02-13.52-6.6-7.53-13.11-15.12-19.73-22.63-7.82-8.87-15.73-17.66-23.55-26.53-4.45-5.05-8.6-10.37-13.22-15.25-6.12-6.47-10.89-14.55-21.88-14.51-6.44.03-11.67,1.4-15.92,5.88-4.21,4.44-7.96,9.31-11.95,13.95-6.59,7.66-13.2,15.32-19.85,22.93-2.42,2.78-5.04,5.38-7.49,8.14-5.14,5.79-10.07,11.78-15.38,17.41-4.14,4.4-11.12,4.24-15.39-.02-1.7-1.69-3.22-3.58-4.75-5.44-5.48-6.67-10.86-13.43-16.41-20.05-4.96-5.91-10.36-11.18-18.88-10.26-5.71-.58-10.31,1.48-13.82,5.6-7.01,8.22-13.79,16.62-20.68,24.93-8.51,10.26-17.17,20.39-25.45,30.84-2.08,2.62-6.05,4.51-5.04,8.98.72,3.21.89,6.7,2.33,9.55,2.98,5.88,6.35,11.62,10.09,17.05,4.64,6.75,11.65,10.86,18.85,14.17,6.66,3.06,14.04,3.32,21.38,3.31,60.39-.06,120.77-.03,181.16-.05,1.95,0,3.9-.1,5.83-.27,1.03-.09,2.04-.44,3.06-.63,1.81-.34,3.64-.58,5.42-1.01"/><path d="m266.18,71.46c-11.84,0-23.29,0-34.73,0-7.64,0-11.98-4.68-12.27-11.45-.28-6.65,5.05-11.88,12-11.95,10.37-.09,20.73-.03,31.1-.03,1.19,0,2.38,0,3.9,0,0-11.06-.05-21.77.04-32.47.02-2.46-.04-5.14.88-7.32,1.65-3.9,4.77-6.43,9.25-6.95,1.23-.14,2.4-.86,3.51-1.28,1.04.85,2.06,1.73,3.13,2.54,3.79,2.87,7.07,5.56,6.78,11.37-.55,11.19-.16,22.42-.16,33.92,1.14.07,2.19.18,3.24.18,10.73.02,21.46-.02,32.2.05,4.35.03,10.91,5.16,11.97,9.16,1.44,5.43-5.79,14.25-11.6,14.24-10.85-.02-21.71,0-32.56.01-.95,0-1.91.09-3.24.16,0,10.46.05,20.8-.04,31.13-.02,2.36-.29,4.8-.91,7.07-1.87,6.85-8.74,9.75-15.14,8.64-3.22-.56-7.37-7.59-7.36-11.8.04-11.58.01-23.15.01-35.22Z"/><path d="m132.73,90.92c1.26,23.32-19.18,42.32-40.61,43.05-24.85.85-45.94-18.85-44.88-43.87.95-22.36,16.34-41.13,42.8-41.83,24.28-.64,44.06,19.95,42.69,42.65Zm-42.68,19.52c10.68.15,20.09-8.62,19.78-19.67-.31-10.92-6.83-18.94-20.06-18.92-11.91.02-18.5,7.57-19.06,18.75-.54,10.8,8.84,20.12,19.35,19.84Z"/></g></svg>