<?xml version="1.0" encoding="UTF-8"?><svg id="Capa_2" xmlns="http://www.w3.org/2000/svg" viewBox="0 0 254.7 149.15"><defs><style>.cls-1{fill:#fff;}</style></defs><g id="Capa_2-2"><path class="cls-1" d="m254.7,17.33c-.16.91-.31,1.82-.49,2.72-1.17,5.63-4.01,10.05-9.3,12.64-8.7,4.25-17.41,8.46-26.09,12.73-3.29,1.62-6.53,3.34-9.79,5.04-2.95,1.53-5.89,3.07-8.81,4.64-4.34,2.32-8.68,4.67-13.01,7.01-2.8,1.52-5.6,3.03-8.38,4.58-3.95,2.2-7.88,4.43-11.82,6.65-2.99,1.68-5.98,3.34-8.95,5.05-3.19,1.84-6.35,3.71-9.52,5.58-3.56,2.09-7.13,4.16-10.67,6.29-3.06,1.84-6.11,3.72-9.12,5.65-5.61,3.59-11.23,7.17-16.78,10.85-3.3,2.19-6.48,4.55-9.9,6.97,2.23.78,4.22,1.58,6.28,2.16,3.78,1.08,7.58,2.1,11.41,3.03,2.97.72,5.98,1.32,8.99,1.88,2.76.51,5.54.93,8.32,1.32,3.09.43,6.18.91,9.28,1.11,3.89.26,7.81.43,11.71.31,3.28-.1,6.5-.82,9.63-1.95,3.4-1.22,6.49-2.98,9.35-5.12,1.75-1.31,3.4-2.81,4.9-4.4,3.06-3.25,5.87-6.7,8.17-10.54,1.39-2.32,2.84-4.62,4.15-6.99,1.28-2.31,2.5-4.65,3.59-7.05,1.78-3.9,3.44-7.86,5.13-11.8.33-.77.57-1.58.94-2.61-.79.31-1.42.54-2.04.8-4.68,1.98-9.35,3.96-14.02,5.96-3.64,1.56-7.27,3.15-10.92,4.7-4.25,1.81-8.51,3.6-12.76,5.41-3.16,1.35-6.31,2.71-9.47,4.06-3.5,1.49-7.01,2.96-10.5,4.45-3.26,1.39-6.5,2.82-9.75,4.21-3.89,1.66-7.78,3.29-11.67,4.94-.56.24-1.1.53-1.66.76-.24.1-.52.13-.83.05,1.67-1.01,3.34-2.03,5.01-3.04,3.6-2.18,7.2-4.37,10.8-6.54,2.95-1.77,5.92-3.52,8.88-5.27,3.21-1.9,6.41-3.82,9.63-5.7,2.54-1.48,5.1-2.92,7.64-4.39,3.14-1.81,6.27-3.66,9.42-5.45,2.67-1.52,5.37-2.98,8.04-4.49,3.57-2.02,7.11-4.09,10.7-6.07,5.36-2.96,10.75-5.87,16.15-8.76,3.12-1.68,6.27-3.31,9.43-4.92,5.97-3.04,11.94-6.06,17.94-9.04,2.61-1.3,5.29-2.47,7.93-3.7.15-.07.32-.12.69-.26-.62,2.19-1.11,4.22-1.78,6.19-1.11,3.28-2.22,6.56-3.52,9.76-3.02,7.41-6.07,14.82-9.27,22.15-3.04,6.97-6.6,13.68-10.59,20.15-3.48,5.65-7,11.28-10.66,16.82-2.5,3.8-5.44,7.27-8.58,10.58-3.16,3.34-6.58,6.37-10.43,8.88-2.15,1.4-4.33,2.83-6.9,3.33-1.34.26-2.72.32-4.09.33-3.02.04-6.05.06-9.08-.03-2.12-.06-4.23-.31-6.35-.47-.86-.06-1.72-.09-2.58-.17-2.16-.2-4.31-.42-6.47-.64-1.57-.16-3.14-.29-4.69-.51-1.97-.28-3.93-.64-5.89-.97-1.65-.27-3.3-.53-4.94-.82-2.11-.38-4.21-.77-6.31-1.2-2.71-.56-5.41-1.12-8.1-1.75-2.58-.6-5.15-1.26-7.72-1.93-3.05-.8-6.1-1.58-9.12-2.49-4.15-1.24-8.3-2.5-12.39-3.93-3.82-1.34-7.57-2.87-11.31-4.42-1.77-.74-3.43-1.72-5.14-2.6-.2-.1-.39-.25-.68-.44.7-.59,1.3-1.14,1.95-1.62,2.06-1.54,4.11-3.12,6.23-4.58,7.61-5.25,15.21-10.54,22.9-15.67,6.37-4.26,12.85-8.37,19.33-12.46,4.02-2.54,8.13-4.95,12.22-7.39,5.98-3.56,11.95-7.13,17.97-10.61,4.89-2.83,9.83-5.58,14.77-8.3,4.34-2.39,8.69-4.77,13.1-7.03,9.32-4.79,18.67-9.53,28.04-14.24,3.24-1.63,6.54-3.15,9.83-4.67,4.88-2.25,9.76-4.5,14.68-6.65,4.94-2.16,9.94-4.18,14.91-6.27.71-.3,1.41-.59,2.14-.84.19-.07.45.05.67.08,0,.33,0,.65,0,.98Z"/><path class="cls-1" d="m239.16,0c.56.11,1.12.27,1.68.32,2.15.19,4.3.34,6.45.5.72.05,1.44.08,2.17.14.25.02.5.08.99.16-2.99.82-5.77,1.46-8.47,2.34-4.74,1.54-9.47,3.12-14.14,4.86-4.19,1.56-8.32,3.3-12.43,5.06-2.88,1.23-5.7,2.6-8.51,3.97-3.2,1.55-6.4,3.09-9.53,4.78-4.88,2.63-9.71,5.38-14.54,8.1-8.12,4.56-16.02,9.47-23.72,14.7-8.11,5.51-16.14,11.13-24.12,16.83-4.66,3.33-9.15,6.89-13.69,10.37-4.39,3.37-8.76,6.78-13.13,10.19-5.6,4.37-11.2,8.74-16.78,13.15-4.53,3.59-8.94,7.33-12.95,11.5-2.29,2.38-4.37,4.91-5.88,7.9-1.27,2.52-.93,4.82.37,7.16,3.28,5.91,7.34,11.29,11.62,16.49,2.62,3.18,5.4,6.22,8.11,9.32.33.38.64.77.85,1.32-1.44-.69-2.89-1.36-4.32-2.08-4.36-2.22-8.46-4.85-12.29-7.88-1.95-1.55-3.88-3.14-5.73-4.81-1.89-1.7-3.77-3.44-5.51-5.3-2.97-3.18-5.65-6.61-8.04-10.26-1.43-2.17-2.9-4.32-4.24-6.55-5.1-8.42-9.49-17.23-14.04-25.95-1-1.92-2.19-3.76-3.42-5.54-.62-.89-1.54-1.57-2.33-2.36.95.21,1.97.39,2.97.66,5.38,1.48,10.14,4.29,15.03,6.86,4.69,2.47,9.39,4.93,14.12,7.31,1.57.79,3.24,1.46,5.06,1.37.66-.04,1.44-.22,1.93-.62,4.07-3.28,8.13-6.58,12.1-9.98,3.26-2.8,6.39-5.76,9.56-8.67,1.29-1.19,2.54-2.43,3.81-3.65,2.82-2.7,5.64-5.4,8.45-8.1,1.84-1.77,3.67-3.53,5.48-5.32,5.71-5.64,11.4-11.3,17.1-16.95,1.1-1.09,2.23-2.16,3.32-3.27,3.09-3.14,6.12-6.35,9.26-9.43,1.79-1.76,3.75-3.36,5.67-4.99,1.79-1.53,3.57-3.1,5.46-4.5,2.85-2.1,5.66-4.32,8.74-6.03,2.43-1.35,5.23-2.06,7.91-2.95,2.29-.76,4.61-1.42,6.94-2.03,3.86-1.01,7.73-1.99,11.61-2.89,3.31-.77,6.65-1.47,9.99-2.09,2.62-.49,5.27-.81,7.92-1.18,2.42-.34,4.83-.68,7.26-.97,1.44-.17,2.9-.24,4.34-.34,2.56-.17,5.11-.34,7.67-.51.06,0,.11-.1.16-.15,4.58,0,9.16,0,13.74,0Z"/><path class="cls-1" d="m.23,56.19c15.42,19.71,31.34,38.98,48.63,57.09-.06.07-.12.14-.17.22-1.06-.45-2.12-.87-3.16-1.34-3.68-1.68-7.39-3.33-11.03-5.1-2.42-1.17-4.79-2.46-7.11-3.81-2.45-1.43-4.87-2.94-7.2-4.55-2.08-1.43-4.02-3.06-6.03-4.59-2.18-1.65-3.14-4.1-4.32-6.42-1.83-3.57-3.17-7.35-4.29-11.18-1.91-6.48-3.59-13.03-5.36-19.55-.06-.22-.12-.44-.18-.66.08-.04.16-.08.23-.12Z"/></g></svg>