<?xml version="1.0" encoding="UTF-8"?><svg id="Capa_2" xmlns="http://www.w3.org/2000/svg" viewBox="0 0 337.41 212.26"><g id="Capa_1-2"><path d="m337.41,107.31c-.4,2.65-.63,5.35-1.24,7.95-.7,3.01-2.07,5.81-3.38,8.62-2.67,5.76-7.03,10.19-11.23,14.79-5.57,6.1-11.55,11.78-17.64,17.34-4.14,3.78-8.56,7.26-12.89,10.83-7.87,6.48-16.2,12.34-24.91,17.64-4.77,2.91-9.75,5.48-14.65,8.17-2.31,1.27-4.6,2.6-6.99,3.7-3.9,1.79-7.84,3.5-11.82,5.1-3.33,1.34-6.71,2.58-10.14,3.65-4.75,1.48-9.56,2.8-14.36,4.11-2.48.68-4.98,1.25-7.5,1.79-1.43.3-2.9.43-4.35.62-8.27,1.12-16.57.4-24.86.53-8.33.12-16.66.06-24.98,0-1.85-.01-3.72-.25-5.56-.52-3.24-.48-6.52-.84-9.67-1.66-11.54-2.98-22.97-6.34-33.81-11.37-5.54-2.57-10.93-5.47-16.35-8.3-7.78-4.06-15.07-8.94-22.5-13.58-2.97-1.86-5.63-4.21-8.38-6.4-3.7-2.94-7.4-5.89-11.02-8.93-2.85-2.4-5.54-5-8.34-7.46-6.61-5.79-12.46-12.32-18.47-18.71-4.04-4.3-7.38-9.1-9.47-14.62-1.11-2.93-1.87-6.02-2.47-9.1-.41-2.08-.56-4.3-.33-6.4.47-4.3,1.64-8.45,3.31-12.46,2.17-5.23,5.4-9.73,9.38-13.74,1.93-1.94,3.82-3.93,5.72-5.9,3.21-3.31,6.36-6.69,9.66-9.91,2.55-2.48,5.28-4.79,7.98-7.12,3.47-2.99,6.97-5.93,10.49-8.86,1.18-.99,2.44-1.88,3.67-2.82,1.94-1.48,3.85-3,5.84-4.41,2.57-1.82,5.19-3.58,7.82-5.33,6.5-4.32,13.23-8.28,20.11-11.98,1.98-1.06,3.93-2.19,5.97-3.14,4.44-2.08,8.85-4.24,13.4-6.04,4.89-1.93,9.89-3.63,14.93-5.16,5.21-1.58,10.49-2.98,15.8-4.18,4.44-1,8.96-1.64,13.46-2.38,3.01-.49,6.02-.92,9.05-1.28,1.68-.2,3.39-.24,5.08-.28,2.97-.08,5.93-.18,8.9-.15,3.05.03,6.11.05,9.14.37,3.86.41,7.7,1.05,11.53,1.69,4.35.72,8.72,1.4,13.02,2.36,6.7,1.49,13.31,3.33,19.79,5.61,1.55.54,3.07,1.15,4.62,1.68,1.66.56,3.38.96,5,1.62,2.36.96,4.66,2.07,6.96,3.15,1.79.83,3.56,1.69,5.32,2.57,7.56,3.8,14.98,7.85,22.12,12.38,4.25,2.7,8.42,5.53,12.56,8.41,2.88,2.01,5.65,4.18,8.45,6.32,1.65,1.27,3.26,2.59,4.88,3.91,2.91,2.37,5.86,4.7,8.7,7.15,1.83,1.58,3.5,3.34,5.26,5.01,2.42,2.3,4.91,4.52,7.27,6.88,2.67,2.67,5.22,5.46,7.84,8.17,2.44,2.52,4.65,5.24,6.59,8.15,2.11,3.15,3.99,6.46,5.18,10.06,1.01,3.05,2.17,6.1,2.1,9.41-.02.79.15,1.58.23,2.37.05.01.11.03.16.04Zm-92.68-69.29s0,.06,0,.09c-.25-.23-.46-.52-.75-.67-1.44-.75-2.88-1.49-4.35-2.18-2.28-1.08-4.56-2.16-6.88-3.15-3.2-1.38-6.4-2.76-9.66-3.99-3.75-1.41-7.51-2.84-11.36-3.91-7.02-1.96-14.07-3.83-21.34-4.71-3.02-.36-6.05-.6-9.08-.86-1.11-.1-2.23-.12-3.35-.18-3.11-.18-6.21-.47-9.32-.5-2.85-.03-5.69.2-8.54.33-.97.04-1.94.1-2.91.19-2.42.22-4.85.44-7.27.69-2.2.23-4.43.37-6.6.8-3.96.78-7.91,1.65-11.81,2.66-3.93,1.01-7.86,2.09-11.71,3.39-7.52,2.53-14.84,5.59-21.93,9.14-5.26,2.63-10.5,5.32-15.55,8.31-6.42,3.79-12.64,7.91-18.54,12.47-1.72,1.33-3.5,2.58-5.2,3.93-3.83,3.06-7.78,6-11.4,9.29-5.16,4.69-10.07,9.65-15.07,14.5-1.35,1.31-2.7,2.61-3.95,4-2.43,2.71-5,5.33-7.1,8.28-1.21,1.7-1.8,3.91-2.38,5.98-.79,2.84-.68,5.76-.26,8.7.45,3.07,1.31,5.95,3.24,8.4,1.78,2.26,3.57,4.55,5.58,6.6,5.31,5.4,10.73,10.69,16.15,15.99,1.5,1.47,3.09,2.85,4.72,4.18,5.27,4.31,10.55,8.6,15.87,12.84,2.16,1.72,4.43,3.31,6.66,4.95.74.54,1.44,1.28,2.28,1.51.86.25,1.34.75,1.85,1.34.02.02.06.01.08.03,1.21.78,2.42,1.57,3.64,2.34,5.88,3.74,12,7.05,18.26,10.11,1.33.65,2.69,1.25,4.03,1.88,1.61.76,3.22,1.53,4.84,2.28.28.13.64.09.92.22.76.35,1.47.83,2.26,1.12,3.44,1.29,6.9,2.54,10.36,3.79,1.78.64,3.54,1.35,5.36,1.86,3.21.91,6.46,1.7,9.7,2.53,5.35,1.37,10.8,2.19,16.31,2.67,2.64.23,5.29.49,7.93.68,2.35.17,4.7.36,7.06.38,3.08.02,6.16-.06,9.23-.21,3.45-.16,6.89-.4,10.33-.69,3.21-.27,6.41-.64,9.61-1,2.79-.32,5.44-1.32,8.2-1.83,1.52-.28,3.04-.6,4.52-1.05,4.44-1.36,8.88-2.7,13.26-4.22,3.44-1.19,6.85-2.52,10.18-3.99,4.39-1.95,8.72-4.07,13.02-6.21,2.65-1.32,5.23-2.78,7.8-4.24,1.32-.75,2.56-1.64,3.85-2.43,2.54-1.55,5.18-2.95,7.62-4.64,4.62-3.2,9.18-6.49,13.66-9.87,3.88-2.93,7.74-5.91,11.41-9.09,7.68-6.64,14.82-13.85,21.86-21.16,1.85-1.92,3.44-4.01,5.02-6.14,2.49-3.37,3.22-7.2,3.5-11.19.19-2.69-.51-5.28-.95-7.91-.37-2.23-1.31-4.12-2.68-5.83-1.37-1.71-2.76-3.4-4.25-5-2.61-2.8-5.26-5.58-7.99-8.27-2.79-2.74-5.71-5.35-8.57-8.02-1.38-1.29-2.67-2.67-4.09-3.91-1.96-1.71-4-3.34-6.03-4.98-2.62-2.12-5.24-4.24-7.91-6.3-1.94-1.51-3.94-2.95-5.94-4.37-2.47-1.76-4.95-3.51-7.48-5.19-1.87-1.24-3.81-2.38-5.74-3.53-2.82-1.69-5.66-3.34-8.49-5.02-.62-.37-1.21-.79-1.85-1.12-.62-.33-1.28-.58-1.92-.86Z"/><path d="m234.9,98.86c.14,1.9.39,3.8.41,5.7.03,2.8-.07,5.61-.16,8.41-.06,1.82-.08,3.65-.34,5.45-.37,2.52-.78,5.07-1.49,7.51-1.38,4.72-3.38,9.18-5.7,13.55-2.94,5.54-6.94,10.15-11.3,14.53-2.08,2.09-4.21,4.18-6.57,5.94-3.44,2.56-6.82,5.26-10.89,6.87-2.62,1.03-5.12,2.37-7.79,3.21-3.7,1.16-7.49,2.03-11.26,2.92-1.61.38-3.27.61-4.91.69-2.4.13-4.81.07-7.21.09-1.45.01-2.9.08-4.34,0-1.23-.07-2.44-.33-3.66-.49-1.24-.16-2.5-.22-3.72-.45-1.74-.33-3.49-.66-5.17-1.21-3.08-1.01-6.14-2.09-9.13-3.33-2.22-.93-4.33-2.12-6.45-3.28-3.76-2.06-7.21-4.57-10.4-7.42-1.4-1.26-2.89-2.42-4.23-3.74-2.07-2.04-3.85-4.33-5.56-6.68-3.03-4.18-5.78-8.53-7.91-13.24-1.94-4.3-3.72-8.66-4.63-13.31-.33-1.7-.43-3.46-.55-5.2-.17-2.45-.36-4.91-.35-7.36.02-3.46.02-6.94.37-10.38.47-4.6,1.84-9.02,3.48-13.34,2.13-5.6,5.05-10.76,8.57-15.61.48-.66.79-1.44,1.26-2.11.28-.4.75-.68,1.1-1.04,2.08-2.19,4.07-4.49,6.25-6.58,4.78-4.57,10.21-8.23,16.08-11.3,5.1-2.67,10.45-4.6,16-6.05,1.14-.3,2.33-.45,3.5-.52,3.28-.17,6.57-.28,9.85-.36,2.03-.05,4.07-.16,6.09,0,3.8.28,7.59.75,11.23,1.98,2.03.68,4.11,1.24,6.11,2.01,2.23.86,4.42,1.84,6.57,2.87,5.98,2.86,11.3,6.69,16.22,11.09,2.95,2.64,5.58,5.56,7.98,8.69,1.42,1.83,2.88,3.66,4.04,5.66,1.43,2.46,2.73,5.02,3.79,7.65,1.49,3.73,2.85,7.53,4,11.37.65,2.18.77,4.51,1.13,6.77-.1.01-.2.03-.3.04Zm-66.42,58.05c2.11-.2,4.27-.21,6.34-.64,3.35-.7,6.66-1.6,9.94-2.56,6.63-1.94,12.27-5.57,17.22-10.29,1.23-1.17,2.29-2.51,3.44-3.76,3.74-4.1,6.96-8.58,8.75-13.85,1.44-4.25,2.55-8.63,3.53-13.02.77-3.45.61-7-.05-10.49-.34-1.8-.74-3.6-1.2-5.38-.76-2.94-1.32-5.96-2.43-8.77-3.9-9.85-10.93-17.12-19.7-22.85-4.65-3.04-9.81-4.81-15.23-5.91-2.27-.46-4.52-1.08-6.82-1.35-1.92-.23-3.88.03-5.82-.07-3.28-.16-6.36.78-9.48,1.51-2.19.51-4.34,1.22-6.47,1.98-4.27,1.53-8.15,3.79-11.76,6.51-3.88,2.92-6.95,6.59-9.89,10.42-1.77,2.32-3.32,4.74-4.56,7.35-2.79,5.91-4.42,12.15-5.22,18.6-.23,1.84-.5,3.73-.31,5.55.52,4.88,1.78,9.64,3.32,14.29.76,2.3,1.9,4.5,3.05,6.64,2.59,4.84,5.99,9.07,10.09,12.73,5.32,4.75,11.13,8.66,18.17,10.56,4.95,1.33,9.87,2.73,15.08,2.78Z"/></g></svg>