<?xml version="1.0" encoding="UTF-8"?><svg id="Capa_2" xmlns="http://www.w3.org/2000/svg" viewBox="0 0 138.21 79.24"><g id="Capa_1-2"><path d="m69.46,68.36c3.6-.39,7.62-.41,11.55-1.53,2.47-.7,4.97-1.25,7.31-2.32.29-.13.52-.07.7.07,1.19.9,2.34,1.84,3.53,2.72,1.35.99,2.72,1.96,4.12,2.88.24.16.42.33.42.54,0,.12-.29.3-.48.36-2.26.7-4.4,1.69-6.62,2.49-1.44.52-2.95.87-4.38,1.49-1.28.55-2.81.5-4.21.77-6.06,1.18-12.13,1.46-18.3.95-3.45-.29-6.81-.98-10.17-1.69-1.35-.28-2.73-.79-4.08-1.23-2.41-.79-4.72-1.81-7.12-2.62-1.21-.41-2.38-.98-3.52-1.56-2.6-1.33-5.2-2.67-7.76-4.08-1.46-.81-2.87-1.72-4.26-2.64-2.49-1.65-4.98-3.28-7.32-5.13-2.56-2.03-5.15-4.03-7.61-6.19-1.39-1.22-2.74-2.49-4.12-3.73-1.35-1.22-2.53-2.63-3.82-3.93-.79-.8-1.53-1.64-2.32-2.43-1.36-1.37-1.41-4.39-.06-5.88,2.46-2.7,5.03-5.26,7.69-7.75,2.3-2.15,4.65-4.24,7.09-6.21,2.03-1.64,4.15-3.17,6.29-4.67,1.9-1.33,3.84-2.59,5.79-3.84,2.27-1.45,4.61-2.78,7.01-4.01,1.88-.96,3.76-1.92,5.7-2.73,3.35-1.41,6.73-2.71,10.24-3.73,2.76-.8,5.57-1.33,8.36-1.9,1.82-.37,3.71-.32,5.56-.58,3.88-.55,7.74-.05,11.63.29,3.65.32,7.1,1.27,10.59,2.18,3.11.82,6.1,1.93,9.05,3.21,2.32,1,4.56,2.14,6.85,3.19,3.4,1.56,6.48,3.65,9.65,5.58,2.94,1.8,5.68,3.89,8.41,5.99,2.5,1.92,4.9,3.97,7.18,6.16,1.31,1.26,2.82,2.32,4.07,3.62,1.21,1.26,2.4,2.55,3.64,3.8.8.81,1.47,1.7,1.98,2.7.58,1.13.55,2.27-.07,3.4-.92,1.69-2.36,2.91-3.68,4.25-1.24,1.27-2.49,2.54-3.78,3.76-1.97,1.87-4.05,3.62-6.11,5.39-2.05,1.76-4.31,3.26-6.32,5.07-.25.23-.62.33-.89.54-1.69,1.29-1.66,1.26-3.35,0-1.71-1.27-3.46-2.48-5.21-3.69-.52-.36-.33-.66.05-.88,2.43-1.36,4.64-3.06,6.84-4.74,1.71-1.31,3.34-2.76,5.02-4.12,1.83-1.5,3.41-3.24,5.22-4.75.83-.69,1.43-1.62,2.37-2.22.27-.17.26-.57,0-.76-2.27-1.73-4.04-3.99-6.2-5.85-2.91-2.52-5.9-4.94-8.99-7.22-3.08-2.27-6.36-4.24-9.73-6.08-2.48-1.36-5.01-2.59-7.57-3.75-3.12-1.41-6.33-2.59-9.57-3.71-2.87-.99-5.83-1.88-8.81-2.15-3.39-.31-6.82-.88-10.26-.43-1,.13-2.01.23-3.02.24-3.6.03-6.98,1.06-10.4,2.04-3.55,1.02-6.93,2.47-10.35,3.8-1.95.76-3.8,1.78-5.68,2.7-2.91,1.43-5.7,3.08-8.43,4.82-1.47.94-2.86,2.01-4.27,3.06-1.56,1.16-3.11,2.35-4.64,3.56-1.55,1.22-3.01,2.54-4.49,3.84-1.73,1.51-3.23,3.25-4.92,4.8-.6.55-.6.86.04,1.44,1.4,1.26,2.62,2.72,4.03,3.96,2.33,2.04,4.63,4.1,7.08,6,1.74,1.35,3.5,2.68,5.3,3.93,1.82,1.27,3.74,2.42,5.66,3.55,1.75,1.03,3.55,1.99,5.35,2.93,1.96,1.02,3.93,2.01,6.03,2.73,1.07.37,2.11.86,3.16,1.29,2.79,1.13,5.64,2.07,8.54,2.82,4.36,1.13,8.81,1.71,13.72,1.81Z"/><path d="m43.54,37.69c-.03-3.37.76-6.38,2.05-9.3,1.18-2.68,2.71-5.13,4.73-7.24,2.05-2.14,4.43-3.87,7.07-5.27,3.27-1.73,6.78-2.45,10.4-2.83,2.25-.23,4.44.24,6.63.66,3.12.59,6.02,1.79,8.6,3.58,2.41,1.67,4.67,3.55,6.37,6.05.92,1.35,1.8,2.71,2.54,4.14.86,1.67,1.39,3.46,1.87,5.3,1.06,4.12.94,8.13-.15,12.22-.5,1.88-1.15,3.64-2.1,5.31-.27.47-.25.72.35,1.07,1.36.79,2.64,1.74,3.89,2.7.37.29.74.46,1.05.19,1.44-1.28,2.44-.07,3.47.61,2.12,1.39,4.25,2.8,6.25,4.35,1.19.92,2.42,1.75,3.64,2.61,1.33.94,2.68,1.85,4.01,2.78,1.22.86,2.43,1.75,3.65,2.61,1.44,1.01,2.93,1.97,4.34,3.02.73.55,1.29,1.31,1.02,2.31-.43,1.6-1.2,3.02-2.4,4.21-.93.93-1.75,1.94-3.1,2.32-.48.14-.89.22-1.33-.08-1.93-1.34-3.87-2.65-5.8-3.99-2.39-1.66-4.78-3.33-7.15-5.02-1.87-1.34-3.7-2.74-5.58-4.07-1.7-1.21-3.41-2.4-5.16-3.52-.64-.41-.68-1.07-.57-1.48.37-1.3-.42-1.91-1.23-2.54-.99-.76-2.01-1.46-3.02-2.19-.34-.24-.56-.12-.82.16-2.02,2.2-4.43,3.84-7.1,5.18-1.49.75-3.06,1.29-4.61,1.75-1.44.43-3.05.39-4.53.83-2.05.61-3.97-.21-5.95-.44-2.73-.32-5.26-1.27-7.68-2.46-2.04-1-3.89-2.37-5.54-3.96-1.16-1.12-2.28-2.28-3.21-3.6-1.59-2.24-2.88-4.61-3.76-7.24-.99-2.92-1.3-5.87-1.16-8.75Zm25.4-17.55c-10.5-.2-18.57,8.36-18.54,18.56.03,9.49,7.68,18.65,19.38,18.29,9.57-.29,17.73-8.35,17.75-18.36.02-10.28-8.31-18.75-18.58-18.49Z"/><path d="m60.16,38.47c-.25-5.43,4.33-8.9,8.76-8.91,4.87-.01,9.07,3.84,9.05,9.25-.02,4.67-4.44,8.72-8.72,8.86-4.36.15-9.56-3.8-9.09-9.2Z"/></g></svg>